<?xml version="1.0" encoding="utf-8"?>
<!-- Generator: Adobe Illustrator 26.0.3, SVG Export Plug-In . SVG Version: 6.00 Build 0)  -->
<svg version="1.0" id="katman_1" xmlns="http://www.w3.org/2000/svg" xmlns:xlink="http://www.w3.org/1999/xlink" x="0px" y="0px"
	 viewBox="0 0 600 450" style="enable-background:new 0 0 600 450;" xml:space="preserve">
<g>
	<rect x="74.8" y="170.3" width="28" height="107.7"/>
	<path d="M162.1,170.3l-6.1,50.3l-4-27.3c-1.2-8.8-2.3-16.4-3.4-22.9h-36.2V278h24.5v-71.1l10.4,71.1h17.5l9.8-72.8v72.7h24.4V170.3
		H162.1z"/>
	<path d="M242.7,189.7c1.1,0.6,1.9,1.8,2.1,3.1c0.5,3.1,0.6,6.2,0.5,9.3v41.7c0.3,4.4-0.1,8.9-1.4,13.2c-1,1.7-3.4,2.4-7.4,2.4
		v-70.7C238.6,188.6,240.8,188.9,242.7,189.7z M242.7,278c5,0.2,10.1-0.2,15-1.1c3.2-0.5,6.2-1.9,8.7-3.8c2.3-2,4-4.6,4.8-7.6
		c1.2-6.4,1.6-12.9,1.4-19.4v-37.9c0-6.8-0.6-13.7-1.6-20.4c-0.5-3.5-2-6.8-4.3-9.5c-2.9-3-6.7-5.2-10.8-6.1
		c-8.6-1.6-17.4-2.2-26.2-1.8h-21.3V278H242.7z"/>
	<path d="M317.9,251.8c0.1,3.3-0.1,6.7-0.7,9.9c-0.5,1.3-2.8,2-4.5,2c-1.4,0.2-2.8-0.7-3.3-2c-0.8-2.8-1.1-5.8-0.9-8.7v-28.8
		c-0.2-2.9,0.1-5.9,0.8-8.7c0.5-1.3,1.9-2,3.2-1.8c1.7,0,4,0.7,4.5,2.1c0.8,2.8,1.1,5.8,0.9,8.7V251.8z M281.6,170.3V278h25.1
		l1.7-6.9c2,2.6,4.6,4.7,7.5,6.2c3.2,1.4,6.6,2.1,10,2.1c4.1,0.1,8.1-1.1,11.4-3.5c3-1.9,5.2-4.8,6.2-8.2c1.2-4.7,1.7-9.6,1.7-14.5
		v-30.5c0.1-4.3-0.1-8.5-0.4-12.7c-0.4-2.2-1.3-4.2-2.6-6c-1.5-2.2-3.7-3.9-6.2-4.9c-3.1-1.2-6.4-1.8-9.7-1.7c-3.4,0-6.8,0.6-10,1.9
		c-2.9,1.4-5.4,3.3-7.5,5.8v-34.6H281.6z"/>
	<path d="M355.2,170.3H383c5.9-0.2,11.7,0.4,17.5,1.7c3.5,0.9,6.6,2.6,9.2,5.1c2.1,2.3,3.5,5.1,4.1,8.1c0.8,4.8,1.2,9.7,1,14.7v9.2
		c0.3,5-0.4,10.1-2.1,14.8c-1.6,3.3-4.3,5.8-7.7,7.2c-4.7,1.8-9.7,2.6-14.7,2.4h-7.4v42.8h-27.7V170.3z M382.8,188.4v27h2.1
		c1.9,0.2,3.9-0.5,5.2-1.8c1.2-2.4,1.8-5.1,1.5-7.8v-8.7c0.3-2.5-0.3-5-1.7-7.1C387.8,188.7,385.3,188.1,382.8,188.4z"/>
	<path d="M441.3,199.6l-1,10.1c3.4-7.2,15.5-9.6,22-10l-7.1,25.6c-3.2-0.2-6.5,0.4-9.4,1.7c-1.9,1-3.2,2.7-3.7,4.8
		c-0.7,4.7-1,9.5-0.9,14.3v30.3h-23.2v-76.8H441.3z"/>
	<path d="M525.3,246.3c0.2,5.4-0.3,10.8-1.2,16.1c-1,3.6-2.8,6.9-5.4,9.6c-2.9,3.1-6.6,5.3-10.6,6.5c-4.8,1.5-9.8,2.2-14.8,2.1
		c-5.4,0.1-10.8-0.5-16-1.8c-3.7-0.9-7-2.8-9.8-5.4c-2.4-2.5-4.1-5.5-5.1-8.7c-1.3-5.2-1.9-10.5-1.8-15.8v-20.6
		c-0.3-5.9,0.7-11.9,2.8-17.5c2-4.5,5.6-8.1,10-10.2c5.8-2.9,12.2-4.3,18.7-4.1c5.5-0.1,11.1,0.7,16.3,2.5c4,1.2,7.6,3.3,10.6,6.2
		c2.3,2.3,4.1,5.1,5.1,8.2c1,4.3,1.5,8.6,1.3,13V246.3z M497.1,220.3c0.2-2.6-0.1-5.3-0.8-7.9c-0.8-1-2-1.6-3.3-1.6
		c-1.3,0-2.5,0.6-3.3,1.6c-0.8,2.5-1.1,5.2-0.9,7.9v36.6c-0.2,2.5,0.1,5.1,0.9,7.5c0.6,1.2,1.9,1.9,3.2,1.7c1.3,0.2,2.7-0.4,3.4-1.6
		c0.7-2.2,1-4.6,0.8-6.9V220.3z"/>
</g>
</svg>
